<svg width="82" height="48" viewBox="0 0 82 48" fill="none" xmlns="http://www.w3.org/2000/svg">
<path d="M1.28125 47.4024H5.125C5.29156 47.4024 5.45813 47.3691 5.61444 47.3037C5.77203 47.2384 5.91425 47.1449 6.03213 47.0257L10.7804 42.2774H71.2196L75.9679 47.0257C76.0857 47.1449 76.228 47.2384 76.3856 47.3037C76.5419 47.3691 76.7084 47.4024 76.875 47.4024H80.7188C81.4273 47.4024 82 46.8297 82 46.1212V5.125C82 2.29856 79.7014 0 76.875 0C76.8724 0 76.8712 0.00128116 76.8686 0.00128116H5.125C2.29856 0.00128116 0 2.29984 0 5.12628V46.1224C0 46.8297 0.572719 47.4024 1.28125 47.4024ZM19.2188 11.5312V14.0937H16.6562V11.5312H19.2188ZM24.3438 11.5312V14.0937H21.7812V11.5312H24.3438ZM29.4688 11.5312V14.0937H26.9062V11.5312H29.4688ZM34.5938 11.5312V14.0937H32.0312V11.5312H34.5938ZM39.7188 11.5312V14.0937H37.1562V11.5312H39.7188ZM44.8438 11.5312V14.0937H42.2812V11.5312H44.8438ZM49.9688 11.5312V14.0937H47.4062V11.5312H49.9688ZM55.0938 11.5312V14.0937H52.5312V11.5312H55.0938ZM60.2188 11.5312V14.0937H57.6562V11.5312H60.2188ZM65.3438 11.5312V14.0937H62.7812V11.5312H65.3438ZM70.4688 11.5312V14.0937H67.9062V11.5312H70.4688ZM11.5312 21.7812H14.0938V24.3437H11.5312V21.7812ZM16.6562 21.7812H19.2188V24.3437H16.6562V21.7812ZM21.7812 21.7812H24.3438V24.3437H21.7812V21.7812ZM26.9062 21.7812H29.4688V24.3437H26.9062V21.7812ZM65.3438 24.345H62.7812V21.7825H65.3438V24.345ZM67.9062 21.7812H70.4688V24.3437H67.9062V21.7812ZM60.2188 24.345H57.6562V21.7825H60.2188V24.345ZM55.0938 24.345H52.5312V21.7825H55.0938V24.345ZM49.9688 24.345H47.4062V21.7825H49.9688V24.345ZM44.8438 24.345H42.2812V21.7825H44.8438V24.345ZM39.7188 24.345H37.1562V21.7825H39.7188V24.345ZM34.5938 24.345H32.0312V21.7825H34.5938V24.345ZM29.4688 26.9075V29.47H26.9062V26.9075H29.4688ZM32.0312 26.9075H34.5938V29.47H32.0312V26.9075ZM37.1562 26.9075H39.7188V29.47H37.1562V26.9075ZM42.2812 26.9075H44.8438V29.47H42.2812V26.9075ZM47.4062 26.9075H49.9688V29.47H47.4062V26.9075ZM52.5312 26.9075H55.0938V29.47H52.5312V26.9075ZM57.6562 26.9075H60.2188V29.47H57.6562V26.9075ZM62.7812 26.9075H65.3438V29.47H62.7812V26.9075ZM67.9062 26.9075H70.4688V29.47H67.9062V26.9075ZM70.4688 19.2187H67.9062V16.6562H70.4688V19.2187ZM65.3438 19.2187H62.7812V16.6562H65.3438V19.2187ZM60.2188 19.2187H57.6562V16.6562H60.2188V19.2187ZM55.0938 19.2187H52.5312V16.6562H55.0938V19.2187ZM49.9688 19.2187H47.4062V16.6562H49.9688V19.2187ZM44.8438 19.2187H42.2812V16.6562H44.8438V19.2187ZM39.7188 19.2187H37.1562V16.6562H39.7188V19.2187ZM34.5938 19.2187H32.0312V16.6562H34.5938V19.2187ZM29.4688 19.2187H26.9062V16.6562H29.4688V19.2187ZM24.3438 19.2187H21.7812V16.6562H24.3438V19.2187ZM19.2188 19.2187H16.6562V16.6562H19.2188V19.2187ZM14.0938 19.2187H11.5312V16.6562H14.0938V19.2187ZM11.5312 26.9075H14.0938V29.47H11.5312V26.9075ZM16.6562 26.9075H19.2188V29.47H16.6562V26.9075ZM21.7812 26.9075H24.3438V29.47H21.7812V26.9075ZM24.3438 32.0312V34.5925H21.7812V32.0312H24.3438ZM26.9062 32.0312H29.4688V34.5925H26.9062V32.0312ZM32.0312 32.0312H34.5938V34.5925H32.0312V32.0312ZM37.1562 32.0312H39.7188V34.5925H37.1562V32.0312ZM42.2812 32.0312H44.8438V34.5925H42.2812V32.0312ZM47.4062 32.0312H49.9688V34.5925H47.4062V32.0312ZM52.5312 32.0312H55.0938V34.5925H52.5312V32.0312ZM57.6562 32.0312H60.2188V34.5925H57.6562V32.0312ZM62.7812 32.0312H65.3438V34.5925H62.7812V32.0312ZM67.9062 32.0312H70.4688V34.5925H67.9062V32.0312ZM14.0938 14.0937H11.5312V11.5312H14.0938V14.0937ZM8.96875 40.4657L6.40625 43.0282V8.21794L8.96875 10.7804V40.4657ZM11.5312 32.0312H14.0938V34.5925H11.5312V32.0312ZM16.6562 32.0312H19.2188V34.5925H16.6562V32.0312ZM19.2188 37.155V39.7149H16.6562V37.155H19.2188ZM21.7812 37.155H24.3438V39.7149H21.7812V37.155ZM26.9062 37.155H29.4688V39.7149H26.9062V37.155ZM32.0312 37.155H34.5938V39.7149H32.0312V37.155ZM37.1562 37.155H39.7188V39.7149H37.1562V37.155ZM42.2812 37.155H44.8438V39.7149H42.2812V37.155ZM47.4062 37.155H49.9688V39.7149H47.4062V37.155ZM52.5312 37.155H55.0938V39.7149H52.5312V37.155ZM57.6562 37.155H60.2188V39.7149H57.6562V37.155ZM62.7812 37.155H65.3438V39.7149H62.7812V37.155ZM67.9062 37.155H70.4688V39.7149H67.9062V37.155ZM73.0312 10.7804L75.5938 8.21794V43.0282L73.0312 40.4657V10.7804ZM71.2196 8.96875H10.7804L8.21794 6.40625H73.7821L71.2196 8.96875ZM11.5312 37.155H14.0938V39.7149H11.5312V37.155ZM5.125 2.5625H76.875H76.8788C78.2895 2.56378 79.4375 3.71178 79.4375 5.12372V44.8386H78.1562V5.125C78.1562 4.95844 78.1229 4.79187 78.0576 4.63556C77.9269 4.32166 77.6783 4.07309 77.3644 3.94241C77.2081 3.87706 77.0416 3.84375 76.875 3.84375H5.125C4.95844 3.84375 4.79187 3.87706 4.63556 3.94241C4.32166 4.07309 4.07309 4.32294 3.94241 4.63556C3.87706 4.79187 3.84375 4.95844 3.84375 5.125V44.8399H2.5625V5.125C2.5625 3.71178 3.71178 2.5625 5.125 2.5625Z" fill="#0BB63B"/>
</svg>
