<svg xmlns="http://www.w3.org/2000/svg" xmlns:xlink="http://www.w3.org/1999/xlink" width="222" height="34" viewBox="0 0 222 34">
    <defs>
        <filter id="a" width="105.1%" height="139.3%" x="-2.5%" y="-12.5%" filterUnits="objectBoundingBox">
            <feOffset dy="2" in="SourceAlpha" result="shadowOffsetOuter1"/>
            <feGaussianBlur in="shadowOffsetOuter1" result="shadowBlurOuter1" stdDeviation="1.5"/>
            <feColorMatrix in="shadowBlurOuter1" result="shadowMatrixOuter1" values="0 0 0 0 0 0 0 0 0 0 0 0 0 0 0 0 0 0 0.2 0"/>
            <feMerge>
                <feMergeNode in="shadowMatrixOuter1"/>
                <feMergeNode in="SourceGraphic"/>
            </feMerge>
        </filter>
        <path id="b" d="M0 28h215.878V0H0z"/>
    </defs>
    <g fill="none" fill-rule="evenodd" filter="url(#a)" transform="translate(3 1)">
        <path fill="#FFF" d="M19.69 20.628c0 .235-.033.42-.1.554a.69.69 0 0 1-.235.285.696.696 0 0 1-.303.101 2.895 2.895 0 0 1-.285.017H4.365V6.242h12.438c.604 0 .907.313.907.94v.823c0 .57-.087 1.082-.26 1.536a3.292 3.292 0 0 1-.748 1.166 3.273 3.273 0 0 1-1.174.747c-.46.174-.974.26-1.545.26H6.11v4.398h9.837c.57 0 1.086.087 1.545.26.458.174.85.423 1.175.747.324.325.576.714.755 1.167.178.454.268.965.268 1.536v.806zm3.308-5.036a6.999 6.999 0 0 0-1.134-1.477 7.688 7.688 0 0 0-1.385-1.091 8.238 8.238 0 0 0 1.242-2.527c.258-.89.387-1.72.387-2.492v-.823c0-.973-.177-1.796-.53-2.468-.351-.671-.794-1.217-1.325-1.636a5.265 5.265 0 0 0-1.72-.915 5.858 5.858 0 0 0-1.73-.285H2.2c-.313 0-.604.056-.873.167a2.068 2.068 0 0 0-.697.47c-.196.202-.35.437-.461.706A2.199 2.199 0 0 0 0 4.077V23.75c0 .313.056.605.168.873.111.269.265.501.461.697.196.196.428.35.697.462.269.112.56.167.873.167h16.568c.974 0 1.796-.176 2.468-.529.671-.352 1.217-.791 1.637-1.317.42-.526.722-1.097.906-1.713a6.03 6.03 0 0 0 .277-1.729v-.84c0-.85-.095-1.627-.285-2.332a7.869 7.869 0 0 0-.772-1.897z"/>
        <mask id="c" fill="#fff">
            <use xlink:href="#b"/>
        </mask>
        <path fill="#FFF" d="M33.858 16.112H47.64v-4.398H33.858z" mask="url(#c)"/>
        <path fill="#FFF" d="M29.074 2.045a2.068 2.068 0 0 0-.696.47c-.196.202-.35.437-.462.706a2.198 2.198 0 0 0-.168.855v15.746c0 1.13.204 2.084.613 2.862.408.778.917 1.41 1.527 1.897.61.487 1.273.837 1.99 1.05.716.212 1.376.318 1.98.318h15.746v-4.364H33.892c-.582 0-1.024-.151-1.326-.453-.302-.303-.453-.74-.453-1.31V6.242h17.49V1.877H29.948c-.313 0-.604.056-.873.168" mask="url(#c)"/>
        <path fill="#3CB776" d="M71.804 20.846c-.465.493-1.116.739-1.956.739h-2.857v-5.473h2.857c.403 0 .77.067 1.1.202.33.134.61.325.84.57.229.247.405.538.528.874.123.335.185.704.185 1.107 0 .828-.233 1.489-.697 1.981zM59.81 11.714c-.828 0-1.475-.243-1.939-.73-.464-.486-.697-1.15-.697-1.989 0-.828.233-1.494.697-1.997.464-.504 1.111-.756 1.94-.756h2.873v5.472H59.81zm15.871 3.022a6.285 6.285 0 0 0-1.25-1.351 7.581 7.581 0 0 0-3.055-1.478 7.727 7.727 0 0 0-1.494-.193h-2.891V6.242h7.675V1.877H66.99V0h-4.307v1.877H59.81c-.705 0-1.467.126-2.283.378a6.752 6.752 0 0 0-2.274 1.226c-.7.565-1.282 1.298-1.746 2.198-.465.902-.697 2.007-.697 3.316 0 1.31.232 2.417.697 3.324.464.906 1.046 1.64 1.746 2.199.699.56 1.457.965 2.274 1.217.816.252 1.578.377 2.283.377h2.874v5.473h-9.672v4.364h9.672V28h4.307v-2.05h2.857c.47 0 .971-.056 1.503-.168a7.508 7.508 0 0 0 1.57-.52 7.764 7.764 0 0 0 1.493-.907c.481-.37.901-.817 1.26-1.344a6.95 6.95 0 0 0 .864-1.82c.218-.689.327-1.464.327-2.326 0-.861-.106-1.633-.319-2.316a6.64 6.64 0 0 0-.865-1.813z" mask="url(#c)"/>
        <path fill="#FFF" d="M78.376 6.242h9.635v19.707h4.365V6.242h9.618V1.878H78.376zM128.837 13.067a1.204 1.204 0 0 0-.884-.365h-13.492v2.488h12.284v7.95h-15.443c-.886 0-1.607-.27-2.14-.805-.535-.533-.806-1.254-.806-2.14V7.733c0-.922.268-1.657.797-2.185.528-.528 1.251-.796 2.15-.796h17.68V2.3h-17.68c-.678 0-1.283.084-1.8.25-.52.167-.98.39-1.369.663-.39.274-.728.592-1.004.945a5.468 5.468 0 0 0-.697 1.147c-.181.407-.315.822-.4 1.233a5.863 5.863 0 0 0-.128 1.16v12.497c0 .678.084 1.288.25 1.811.167.524.39.987.662 1.374.273.388.588.721.939.99.367.284.755.517 1.154.694a6 6 0 0 0 1.233.4c.418.085.808.128 1.16.128h16.65c.189 0 .355-.03.507-.094a1.17 1.17 0 0 0 .388-.255c.107-.106.19-.233.255-.388.063-.152.094-.318.094-.506V13.946c0-.173-.03-.328-.092-.474a1.308 1.308 0 0 0-.268-.405M154.379 16.892H135.99v-2.946c0-1.423.208-2.665.619-3.694.408-1.024.941-1.897 1.585-2.595a7.746 7.746 0 0 1 2.126-1.648c.727-.376 1.432-.66 2.1-.845.655-.182 1.25-.298 1.77-.346.652-.059.874-.066.995-.066h9.194v12.14zm2.094-14.234a1.244 1.244 0 0 0-.886-.358h-10.402c-1.687 0-3.258.29-4.672.862a11.116 11.116 0 0 0-3.674 2.393c-1.027 1.016-1.842 2.251-2.422 3.67-.583 1.424-.879 3.012-.879 4.72v11.647h2.452v-6.249h18.389v6.25h2.451V3.542a1.249 1.249 0 0 0-.357-.885zM188.746 1.974a1.292 1.292 0 0 0-.805.055 1.17 1.17 0 0 0-.599.513l-11.435 19.876L164.46 2.52a1.084 1.084 0 0 0-.561-.48 1.38 1.38 0 0 0-.825-.055c-.24.068-.45.21-.621.435a1.21 1.21 0 0 0-.251.768v22.403h2.451V7.437l10.24 17.937c.111.202.236.33.402.42.396.215.876.2 1.272-.007a.932.932 0 0 0 .398-.398l10.213-17.967v18.17h2.487V3.189c0-.294-.08-.535-.254-.76a1.234 1.234 0 0 0-.665-.455M215.879 2.3h-19.706c-.188 0-.354.03-.508.094a1.106 1.106 0 0 0-.375.253 1.265 1.265 0 0 0-.36.897v16.65c0 1.014.176 1.863.523 2.524.36.686.809 1.245 1.333 1.664a5.1 5.1 0 0 0 1.736.917c.654.195 1.256.293 1.788.293h15.569v-2.451h-15.534c-.91 0-1.64-.268-2.168-.797-.527-.527-.796-1.25-.796-2.15V4.753h18.498V2.3z" mask="url(#c)"/>
        <path fill="#FFF" d="M199.683 15.19h14.688v-2.488h-14.688z" mask="url(#c)"/>
    </g>
</svg>
