<svg width="28" height="27" viewBox="0 0 28 27" fill="none" xmlns="http://www.w3.org/2000/svg">
<path d="M18.9847 11.8602L14.6253 8.68974L8.68077 12.6528L11.4549 17.8047L17.3995 17.4084L18.9847 11.8602Z" fill="#0BB63B"/>
<path d="M20.5699 5.51932L18.1921 1.55628L22.1551 2.34889L23.7403 6.31192L20.5699 5.51932Z" fill="#0BB63B"/>
<path d="M23.344 16.6158L26.9107 13.8417C28.1789 16.378 25.5897 19.3899 24.1366 20.5789L23.344 16.6158Z" fill="#0BB63B"/>
<path d="M13.8327 23.353L18.1921 25.3345C16.9239 27.8708 11.8512 26.3913 9.47338 25.3345L13.8327 23.353Z" fill="#0BB63B"/>
<path d="M4.71774 16.6158L3.13252 21.3715C1.86435 20.4203 0.754702 15.1627 0.358398 12.6528L4.71774 16.6158Z" fill="#0BB63B"/>
<path d="M8.28447 5.51932L2.73622 5.91562C3.68735 4.96449 8.41657 2.08468 10.6623 0.763672L8.28447 5.51932Z" fill="#0BB63B"/>
</svg>
