<svg width="11" height="17" viewBox="0 0 11 17" fill="none" xmlns="http://www.w3.org/2000/svg">
<path fill-rule="evenodd" clip-rule="evenodd" d="M5.1 10.2C2.28335 10.2 0 7.91665 0 5.1C0 2.28335 2.28335 0 5.1 0C7.91665 0 10.2 2.28335 10.2 5.1C10.2 7.91665 7.91665 10.2 5.1 10.2ZM5.1 7.65C6.50833 7.65 7.65 6.50833 7.65 5.1C7.65 3.69167 6.50833 2.55 5.1 2.55C3.69167 2.55 2.55 3.69167 2.55 5.1C2.55 6.50833 3.69167 7.65 5.1 7.65ZM8.5 17V9.9875C6.45897 11.4178 3.74103 11.4178 1.7 9.9875V17L5.1 13.6L8.5 17Z" fill="white"/>
</svg>
